<?xml version="1.0" standalone="no"?><!DOCTYPE svg PUBLIC "-//W3C//DTD SVG 1.1//EN" "http://www.w3.org/Graphics/SVG/1.1/DTD/svg11.dtd"><svg t="1590543763586" class="icon" viewBox="0 0 1024 1024" version="1.1" xmlns="http://www.w3.org/2000/svg" p-id="11575" xmlns:xlink="http://www.w3.org/1999/xlink" width="20" height="21"><defs><style type="text/css"></style></defs><path d="M829.272224 870.503385c-13.257632-7.297779-18.609336-17.636299-16.298373-31.137189 2.310963-13.500891 8.757335-26.150374 19.339114-37.94845 33.691412-36.853783 60.814824-79.789049 81.613494-128.805797 20.79867-49.016748 31.866968-101.804015 33.083264-158.48343 0.608148-59.841786-10.21689-116.156313-32.718376-168.821951-22.379855-52.665637-53.152156-98.763274-92.073642-138.171279-38.921487-39.529635-84.775864-70.788455-137.563131-93.776458-52.787267-22.988003-109.223423-34.907709-169.18684-35.515857h-5.108445c-58.138971 0-112.872313 10.825039-164.200024 32.596746-52.787267 22.379855-99.128162 52.787267-139.022686 91.343865-39.894524 38.434969-71.396603 83.924457-94.506236 136.225205S77.601004 446.502435 76.992856 506.344221c-0.608148 56.557786 9.122224 109.831571 29.191115 159.942987 20.068892 49.989785 48.16534 94.262977 84.167716 132.819574 35.880746 38.434969 78.207863 70.301936 126.738093 95.236014 48.530229 25.055707 100.709348 40.502673 156.780615 46.340896 14.473928 1.946074 30.042523 3.648889 46.462525 4.986815 16.541632 1.337926 34.786079 2.310963 54.976601 2.919112 10.095261 0.364889 20.67704 0.486519 31.866967 0.486518s22.988003-0.12163 35.394228-0.486518c24.690818-0.608148 52.665637-2.675852 83.681197-5.959853 68.599121-6.568001 119.561943-15.082076 152.888466-25.663856 33.326523-10.46015 46.705785-16.420002 40.016154-17.757928-34.786079-5.959853-64.828602-15.568595-89.884309-28.704597z m-42.692006 21.163559c-19.217484 2.797482-40.745932 5.230075-64.463713 7.541038-30.529041 3.162371-57.530823 5.108445-80.518827 5.716593-12.041335 0.364889-23.474522 0.486519-34.29956 0.486519-10.703409 0-20.920299-0.12163-30.529042-0.486519-19.460744-0.608148-37.097042-1.581185-52.908896-2.797482-15.568595-1.216296-30.285782-2.797482-44.029932-4.621926-51.81423-5.473334-99.371422-19.582373-142.793206-41.962228-43.786673-22.623114-82.464901-51.6926-114.818387-86.23542-32.110227-34.42119-57.530823-74.558974-75.532011-119.318684-17.879558-44.394821-26.636893-92.560162-26.028745-143.158095 0.608148-53.760304 11.311557-104.601497 31.866968-151.185652 20.67704-46.949044 49.260007-88.059865 84.897494-122.481054 35.880746-34.664449 78.207863-62.396009 125.765055-82.586531 45.611118-19.339114 95.114384-29.191115 147.171873-29.191115h4.621927c53.881934 0.608148 105.088015 11.311557 152.280318 31.866968 47.435562 20.67704 89.154531 49.138377 124.06224 84.410975C826.231483 273.058558 854.206302 315.020786 874.275194 362.334719c19.947262 46.827414 29.799264 97.668607 29.191115 151.307281-1.216296 50.233044-11.189928 98.155125-29.677634 141.941799-18.730966 44.273192-43.543414 83.437938-73.707566 116.521202-16.298373 18.366077-26.393633 38.434969-30.042523 60.085045-4.013778 22.501485 2.067704 43.421784 16.541632 59.476898z" fill="#666666" p-id="11576"></path><path d="M512.062104 709.344103c-23.961041 0-43.543414-19.582373-43.543414-43.543414 0-23.961041 19.460744-43.543414 43.543414-43.543414 23.961041 0 43.543414 19.582373 43.543414 43.543414 0 23.961041-19.460744 43.543414-43.543414 43.543414z m117.615869-249.462407c-8.757335 14.717187-27.123411 34.664449-55.584749 59.963416-14.595558 13.014372-36.853783 29.069486-40.381043 37.097043-3.52726 7.905927-0.364889 21.406818 0 43.543413h-43.421784c-0.12163-10.46015-0.12163-41.47571-0.121629-43.543413V513.277111c6.81126-14.230669 18.852595-21.163559 39.043116-38.799857 20.312151-17.757928 32.475116-29.312745 36.367265-34.786079 6.081482-8.635705 9.243853-18.244447 9.243853-28.582967 0-14.473928-5.473334-26.880152-16.298373-37.218672s-28.339708-19.582373-46.584155-19.582374c-17.757928 0-29.677634 9.487112-41.597339 20.312151-11.919705 10.703409-22.136596 34.42119-24.569189 49.138378-2.310963 13.86578-64.585343 19.704003-63.855564-8.392446 0.729778-28.096449 14.352298-58.62549 37.70519-80.640456 23.352892-22.136596 54.125193-33.204894 92.073643-33.204894 40.016154 0 71.639862 11.189928 95.357644 33.569783 23.596152 22.379855 35.394227 48.4086 35.394227 78.207863 0.243259 16.420002-4.135408 31.988597-12.771113 46.584155z" fill="#666666" p-id="11577"></path></svg>