<?xml version="1.0" standalone="no"?><!DOCTYPE svg PUBLIC "-//W3C//DTD SVG 1.1//EN" "http://www.w3.org/Graphics/SVG/1.1/DTD/svg11.dtd"><svg t="1590543261042" class="icon" viewBox="0 0 1024 1024" version="1.1" xmlns="http://www.w3.org/2000/svg" p-id="2698" xmlns:xlink="http://www.w3.org/1999/xlink" width="20" height="21"><defs><style type="text/css"></style></defs><path d="M512 1024A512 512 0 1 1 512 0v64a448 448 0 1 0 448 448h64a512 512 0 0 1-512 512zM576.064 3.968A512.256 512.256 0 0 1 1020.032 448H955.52a448.32 448.32 0 0 0-379.392-379.456V3.968z" p-id="2699" fill="#666666"></path><path d="M448 64h64v512H448z" p-id="2700" fill="#666666"></path><path d="M448 512h512v64H448zM576 64h64v384H576z" p-id="2701" fill="#666666"></path><path d="M576 384h384v64H576z" p-id="2702" fill="#666666"></path></svg>